<svg width="66" height="19" viewBox="0 0 66 19" fill="none" xmlns="http://www.w3.org/2000/svg">
	<path d="M11.1562 14.4844H4.99219L3.82031 18H0.0820312L6.43359 0.9375H9.69141L16.0781 18H12.3398L11.1562 14.4844ZM5.94141 11.6367H10.207L8.0625 5.25L5.94141 11.6367ZM30.8086 12.3164C30.6758 14.1523 29.9961 15.5977 28.7695 16.6523C27.5508 17.707 25.9414 18.2344 23.9414 18.2344C21.7539 18.2344 20.0312 17.5 18.7734 16.0312C17.5234 14.5547 16.8984 12.5312 16.8984 9.96094V8.91797C16.8984 7.27734 17.1875 5.83203 17.7656 4.58203C18.3438 3.33203 19.168 2.375 20.2383 1.71094C21.3164 1.03906 22.5664 0.703125 23.9883 0.703125C25.957 0.703125 27.543 1.23047 28.7461 2.28516C29.9492 3.33984 30.6445 4.82031 30.832 6.72656H27.3164C27.2305 5.625 26.9219 4.82812 26.3906 4.33594C25.8672 3.83594 25.0664 3.58594 23.9883 3.58594C22.8164 3.58594 21.9375 4.00781 21.3516 4.85156C20.7734 5.6875 20.4766 6.98828 20.4609 8.75391V10.043C20.4609 11.8867 20.7383 13.2344 21.293 14.0859C21.8555 14.9375 22.7383 15.3633 23.9414 15.3633C25.0273 15.3633 25.8359 15.1172 26.3672 14.625C26.9062 14.125 27.2148 13.3555 27.293 12.3164H30.8086ZM37.7109 0.9375L42.0938 13.3125L46.4531 0.9375H51.0703V18H47.543V13.3359L47.8945 5.28516L43.2891 18H40.875L36.2812 5.29688L36.6328 13.3359V18H33.1172V0.9375H37.7109ZM64.4062 10.6055H57.6562V15.1758H65.5781V18H54.1406V0.9375H65.5547V3.78516H57.6562V7.85156H64.4062V10.6055Z" fill="black" />
</svg>
