<svg width="18" height="19" viewBox="0 0 18 19" fill="none" xmlns="http://www.w3.org/2000/svg">
<path d="M14.2433 2H6.75758C5.92433 2 5.25008 2.67425 5.25008 3.5075V7.73525L1.72358 11.2167C1.61792 11.3213 1.54568 11.4548 1.51604 11.6004C1.48641 11.746 1.5007 11.8972 1.55711 12.0347C1.61352 12.1722 1.7095 12.2898 1.83288 12.3727C1.95626 12.4555 2.10147 12.4998 2.25008 12.5V16.25C2.25008 16.4489 2.3291 16.6397 2.46975 16.7803C2.61041 16.921 2.80117 17 3.00008 17H15.0001C15.199 17 15.3898 16.921 15.5304 16.7803C15.6711 16.6397 15.7501 16.4489 15.7501 16.25V3.50675C15.7501 2.67425 15.0766 2 14.2433 2ZM8.19158 11.8333V15.5H3.75008V11.324L5.99033 9.11225L8.19158 11.3645V11.8333V11.8333ZM9.75008 7.25H8.25008V5.75H9.75008V7.25ZM12.7501 13.25H11.2501V11.75H12.7501V13.25ZM12.7501 10.25H11.2501V8.75H12.7501V10.25ZM12.7501 7.25H11.2501V5.75H12.7501V7.25Z" fill="white"/>
<path d="M5.25 11.75H6.75V13.25H5.25V11.75Z" fill="white"/>
</svg>
