<svg width="18" height="19" viewBox="0 0 18 19" fill="none" xmlns="http://www.w3.org/2000/svg">
<path d="M9.00001 1.625C7.35957 1.62694 5.78688 2.27945 4.62692 3.43941C3.46696 4.59938 2.81444 6.17207 2.81251 7.8125C2.81054 9.15306 3.24843 10.4573 4.05901 11.525C4.05901 11.525 4.22776 11.7472 4.25532 11.7793L9.00001 17.375L13.7469 11.7764C13.7717 11.7466 13.941 11.525 13.941 11.525L13.9416 11.5233C14.7517 10.456 15.1894 9.15245 15.1875 7.8125C15.1856 6.17207 14.5331 4.59938 13.3731 3.43941C12.2131 2.27945 10.6404 1.62694 9.00001 1.625V1.625ZM9.00001 10.0625C8.555 10.0625 8.11998 9.93054 7.74997 9.68331C7.37996 9.43607 7.09158 9.08467 6.92128 8.67354C6.75098 8.2624 6.70642 7.81 6.79324 7.37355C6.88006 6.93709 7.09435 6.53618 7.40902 6.22151C7.72368 5.90684 8.1246 5.69255 8.56105 5.60573C8.99751 5.51892 9.44991 5.56347 9.86104 5.73377C10.2722 5.90407 10.6236 6.19246 10.8708 6.56247C11.118 6.93248 11.25 7.36749 11.25 7.8125C11.2493 8.40901 11.012 8.98087 10.5902 9.40267C10.1684 9.82446 9.59652 10.0618 9.00001 10.0625V10.0625Z" fill="white"/>
</svg>
