<svg width="819" height="176" viewBox="0 0 819 176" fill="none" xmlns="http://www.w3.org/2000/svg">
<path d="M77.7861 101.255C77.7861 113.364 75.0029 123.105 69.4365 130.479C63.8701 137.803 56.3994 141.465 47.0244 141.465C37.0146 141.465 29.2754 137.925 23.8066 130.845L23.1475 140H10.6963L10.6963 27.5H24.2461L24.2461 69.4678C29.7148 62.6807 37.2588 59.2871 46.8779 59.2871C56.4971 59.2871 64.041 62.9248 69.5098 70.2002C75.0273 77.4756 77.7861 87.4365 77.7861 100.083V101.255ZM64.2363 99.7168C64.2363 90.4883 62.4541 83.3594 58.8896 78.3301C55.3252 73.3008 50.1982 70.7861 43.5088 70.7861C34.5732 70.7861 28.1523 74.9365 24.2461 83.2373L24.2461 117.515C28.3965 125.815 34.8662 129.966 43.6553 129.966C50.1494 129.966 55.2031 127.451 58.8164 122.422C62.4297 117.393 64.2363 109.824 64.2363 99.7168ZM127.811 141.465C117.068 141.465 108.328 137.949 101.59 130.918C94.8516 123.838 91.4824 114.39 91.4824 102.573V100.083C91.4824 92.2217 92.9717 85.2148 95.9502 79.0625C98.9775 72.8613 103.177 68.0273 108.548 64.5605C113.968 61.0449 119.827 59.2871 126.126 59.2871C136.429 59.2871 144.437 62.6807 150.149 69.4678C155.862 76.2549 158.719 85.9717 158.719 98.6182V104.258L105.032 104.258C105.228 112.07 107.498 118.394 111.844 123.228C116.238 128.013 121.805 130.405 128.543 130.405C133.328 130.405 137.381 129.429 140.701 127.476C144.021 125.522 146.927 122.935 149.417 119.712L157.693 126.157C151.053 136.362 141.092 141.465 127.811 141.465ZM126.126 70.4199C120.657 70.4199 116.067 72.4219 112.356 76.4258C108.646 80.3809 106.351 85.9473 105.472 93.125L145.169 93.125V92.0996C144.778 85.2148 142.923 79.8926 139.603 76.1328C136.282 72.3242 131.79 70.4199 126.126 70.4199ZM206.253 130.405C211.087 130.405 215.311 128.94 218.924 126.011C222.537 123.081 224.539 119.419 224.93 115.024H237.747C237.503 119.565 235.94 123.887 233.06 127.988C230.179 132.09 226.321 135.361 221.487 137.803C216.702 140.244 211.624 141.465 206.253 141.465C195.462 141.465 186.868 137.876 180.472 130.698C174.124 123.472 170.95 113.608 170.95 101.108V98.8379C170.95 91.123 172.366 84.2627 175.198 78.2568C178.03 72.251 182.083 67.5879 187.356 64.2676C192.679 60.9473 198.953 59.2871 206.18 59.2871C215.066 59.2871 222.439 61.9482 228.299 67.2705C234.207 72.5928 237.356 79.502 237.747 87.998H224.93C224.539 82.8711 222.586 78.6719 219.07 75.4004C215.604 72.0801 211.307 70.4199 206.18 70.4199C199.295 70.4199 193.948 72.9102 190.14 77.8906C186.38 82.8223 184.5 89.9756 184.5 99.3506V101.914C184.5 111.045 186.38 118.076 190.14 123.008C193.899 127.939 199.271 130.405 206.253 130.405ZM249.393 99.6436C249.393 91.8799 250.906 84.8975 253.934 78.6963C257.01 72.4951 261.258 67.71 266.678 64.3408C272.146 60.9717 278.372 59.2871 285.354 59.2871C296.146 59.2871 304.861 63.0225 311.502 70.4932C318.191 77.9639 321.536 87.9004 321.536 100.303V101.255C321.536 108.97 320.047 115.903 317.068 122.056C314.139 128.159 309.915 132.92 304.397 136.338C298.929 139.756 292.63 141.465 285.501 141.465C274.759 141.465 266.043 137.729 259.354 130.259C252.713 122.788 249.393 112.9 249.393 100.596V99.6436ZM263.016 101.255C263.016 110.044 265.042 117.1 269.095 122.422C273.196 127.744 278.665 130.405 285.501 130.405C292.386 130.405 297.854 127.72 301.907 122.349C305.96 116.929 307.986 109.36 307.986 99.6436C307.986 90.9521 305.911 83.9209 301.761 78.5498C297.659 73.1299 292.19 70.4199 285.354 70.4199C278.665 70.4199 273.27 73.0811 269.168 78.4033C265.066 83.7256 263.016 91.3428 263.016 101.255ZM351.272 60.752L351.639 69.541C357.449 62.7051 365.286 59.2871 375.149 59.2871C386.233 59.2871 393.777 63.5352 397.781 72.0313C400.418 68.2227 403.836 65.1465 408.035 62.8027C412.283 60.459 417.288 59.2871 423.05 59.2871C440.433 59.2871 449.271 68.4912 449.563 86.8994V140H436.014V87.7051C436.014 82.041 434.72 77.8174 432.132 75.0342C429.544 72.2021 425.198 70.7861 419.095 70.7861C414.065 70.7861 409.891 72.2998 406.57 75.3271C403.25 78.3057 401.321 82.334 400.784 87.4121V140H387.161V88.0713C387.161 76.5479 381.521 70.7861 370.242 70.7861C361.355 70.7861 355.276 74.5703 352.005 82.1387V140H338.455V60.752H351.272ZM502.957 141.465C492.215 141.465 483.475 137.949 476.736 130.918C469.998 123.838 466.629 114.39 466.629 102.573V100.083C466.629 92.2217 468.118 85.2148 471.097 79.0625C474.124 72.8613 478.323 68.0273 483.694 64.5605C489.114 61.0449 494.974 59.2871 501.272 59.2871C511.575 59.2871 519.583 62.6807 525.296 69.4678C531.009 76.2549 533.865 85.9717 533.865 98.6182V104.258H480.179C480.374 112.07 482.645 118.394 486.99 123.228C491.385 128.013 496.951 130.405 503.689 130.405C508.475 130.405 512.527 129.429 515.848 127.476C519.168 125.522 522.073 122.935 524.563 119.712L532.84 126.157C526.199 136.362 516.238 141.465 502.957 141.465ZM501.272 70.4199C495.804 70.4199 491.214 72.4219 487.503 76.4258C483.792 80.3809 481.497 85.9473 480.618 93.125H520.315V92.0996C519.925 85.2148 518.069 79.8926 514.749 76.1328C511.429 72.3242 506.937 70.4199 501.272 70.4199Z" fill="white"/>
<path d="M551.736 140V33.3594L581.839 33.3594C591.116 33.3594 599.319 35.4102 606.448 39.5117C613.577 43.6133 619.07 49.4482 622.928 57.0166C626.834 64.585 628.812 73.2764 628.86 83.0908V89.9023C628.86 99.9609 626.907 108.774 623.001 116.343C619.144 123.911 613.602 129.722 606.375 133.774C599.197 137.827 590.823 139.902 581.253 140H551.736ZM565.799 44.9316V128.501H580.594C591.434 128.501 599.856 125.132 605.862 118.394C611.917 111.655 614.944 102.061 614.944 89.6094V83.3838C614.944 71.2744 612.088 61.875 606.375 55.1855C600.711 48.4473 592.654 45.0293 582.205 44.9316L565.799 44.9316ZM710.452 90.708H664.236V128.501H717.923V140H650.174V33.3594L717.19 33.3594V44.9316L664.236 44.9316V79.209H710.452V90.708ZM770.73 121.323L801.199 33.3594H816.58L777.029 140L764.578 140L725.101 33.3594H740.408L770.73 121.323Z" fill="#F49A68"/>
<g filter="url(#filter0_b)">
<rect width="819" height="176" fill="#171717" fill-opacity="0.1"/>
</g>
<defs>
<filter id="filter0_b" x="-15" y="-15" width="849" height="206" filterUnits="userSpaceOnUse" color-interpolation-filters="sRGB">
<feFlood flood-opacity="0" result="BackgroundImageFix"/>
<feGaussianBlur in="BackgroundImage" stdDeviation="7.5"/>
<feComposite in2="SourceAlpha" operator="in" result="effect1_backgroundBlur"/>
<feBlend mode="normal" in="SourceGraphic" in2="effect1_backgroundBlur" result="shape"/>
</filter>
</defs>
</svg>
